<svg width="16" height="16" viewBox="0 0 16 16" fill="none" xmlns="http://www.w3.org/2000/svg">
<path d="M13.5 3H2.5C2.22386 3 2 3.22386 2 3.5V12.5C2 12.7761 2.22386 13 2.5 13H13.5C13.7761 13 14 12.7761 14 12.5V3.5C14 3.22386 13.7761 3 13.5 3Z" stroke="white" stroke-linecap="round" stroke-linejoin="round"/>
<path d="M7.25001 9.22474C7.00671 9.47305 6.69497 9.64328 6.35454 9.71371C6.01411 9.78414 5.66042 9.75158 5.33856 9.62019C5.01671 9.48879 4.74129 9.26451 4.54741 8.97596C4.35354 8.6874 4.25 8.34764 4.25 8C4.25 7.65236 4.35354 7.31259 4.54742 7.02404C4.74129 6.73548 5.01672 6.5112 5.33857 6.37981C5.66043 6.24842 6.01412 6.21586 6.35455 6.28629C6.69498 6.35672 7.00672 6.52695 7.25001 6.77527" stroke="white" stroke-linecap="round" stroke-linejoin="round"/>
<path d="M11.75 9.22474C11.5067 9.47305 11.195 9.64328 10.8545 9.71371C10.5141 9.78414 10.1604 9.75158 9.83856 9.62019C9.51671 9.48879 9.24129 9.26451 9.04741 8.97596C8.85354 8.6874 8.75 8.34764 8.75 8C8.75 7.65236 8.85354 7.31259 9.04742 7.02404C9.24129 6.73548 9.51672 6.5112 9.83857 6.37981C10.1604 6.24842 10.5141 6.21586 10.8545 6.28629C11.195 6.35672 11.5067 6.52695 11.75 6.77527" stroke="white" stroke-linecap="round" stroke-linejoin="round"/>
</svg>
