<svg width="16" height="16" viewBox="0 0 16 16" fill="none" xmlns="http://www.w3.org/2000/svg">
<path d="M14.2593 7.57339L5.26073 2.0741C5.18494 2.02778 5.09817 2.00248 5.00936 2.00082C4.92055 1.99916 4.8329 2.02118 4.75542 2.06463C4.67795 2.10808 4.61345 2.17139 4.56856 2.24803C4.52366 2.32468 4.5 2.41191 4.5 2.50073V13.4993C4.5 13.5881 4.52366 13.6754 4.56856 13.752C4.61345 13.8287 4.67795 13.892 4.75542 13.9354C4.8329 13.9789 4.92055 14.0009 5.00936 13.9992C5.09817 13.9976 5.18494 13.9723 5.26073 13.9259L14.2593 8.42666C14.3324 8.38199 14.3927 8.3193 14.4346 8.2446C14.4765 8.16989 14.4985 8.08567 14.4985 8.00002C14.4985 7.91437 14.4765 7.83015 14.4346 7.75545C14.3927 7.68074 14.3324 7.61805 14.2593 7.57339Z" stroke="white" stroke-linecap="round" stroke-linejoin="round"/>
</svg>
