<svg width="24" height="24" viewBox="0 0 24 24" fill="none" xmlns="http://www.w3.org/2000/svg">
<path d="M3.19421 13.1951C2.35557 11.7814 2.06187 10.1101 2.36826 8.49515C2.67466 6.88018 3.56007 5.4326 4.85823 4.42425C6.15639 3.4159 7.77801 2.91613 9.41858 3.0188C11.0591 3.12146 12.6058 3.81949 13.7681 4.98181C14.9305 6.14414 15.6285 7.6908 15.7312 9.33136C15.8338 10.9719 15.3341 12.5936 14.3257 13.8917C13.3174 15.1899 11.8698 16.0753 10.2549 16.3817C8.63989 16.6881 6.96862 16.3944 5.55486 15.5558L5.55488 15.5557L3.22356 16.2218C3.1271 16.2494 3.02504 16.2506 2.92793 16.2255C2.83082 16.2003 2.74221 16.1496 2.67128 16.0787C2.60035 16.0078 2.54967 15.9192 2.52451 15.822C2.49935 15.7249 2.50061 15.6229 2.52817 15.5264L3.19426 13.1951L3.19421 13.1951Z" stroke="white" stroke-width="1.5" stroke-linecap="round" stroke-linejoin="round"/>
<path d="M8.63055 16.4898C8.96238 17.4318 9.49898 18.2885 10.2017 18.9981C10.9045 19.7078 11.7558 20.2528 12.6945 20.5938C13.6332 20.9349 14.6359 21.0635 15.6303 20.9705C16.6247 20.8774 17.5861 20.565 18.4452 20.0557L18.4452 20.0556L20.7765 20.7217C20.8729 20.7492 20.975 20.7505 21.0721 20.7253C21.1692 20.7002 21.2578 20.6495 21.3288 20.5786C21.3997 20.5076 21.4504 20.419 21.4755 20.3219C21.5007 20.2248 21.4994 20.1228 21.4719 20.0263L20.8058 17.695L20.8058 17.695C21.3977 16.6969 21.7223 15.5631 21.7483 14.403C21.7744 13.2429 21.501 12.0957 20.9546 11.072C20.4082 10.0483 19.6072 9.18275 18.6288 8.55879C17.6505 7.93482 16.5278 7.57353 15.3692 7.50977" stroke="white" stroke-width="1.5" stroke-linecap="round" stroke-linejoin="round"/>
</svg>
