<svg width="16" height="16" viewBox="0 0 16 16" fill="none" xmlns="http://www.w3.org/2000/svg">
<path d="M1.25 13.5H5.75C6.39279 13.5 7.02114 13.3094 7.5556 12.9523C8.09006 12.5952 8.50662 12.0876 8.75261 11.4937C8.99859 10.8999 9.06295 10.2464 8.93755 9.61596C8.81215 8.98552 8.50262 8.40642 8.0481 7.9519C7.59358 7.49738 7.01448 7.18785 6.38404 7.06245C5.75361 6.93705 5.10014 7.00141 4.50628 7.24739C3.91242 7.49338 3.40484 7.90994 3.04772 8.4444C2.69061 8.97886 2.5 9.60721 2.5 10.25C2.5 12.5 1.25 13.5 1.25 13.5Z" stroke="white" stroke-linecap="round" stroke-linejoin="round"/>
<path d="M7.02539 7.25982C8.22502 5.64308 11.2771 1.93921 14.0606 1.93921C14.0606 4.72273 10.3568 7.77473 8.74005 8.97439" stroke="white" stroke-linecap="round" stroke-linejoin="round"/>
<path d="M8.31006 5.66528C9.15865 6.14058 9.85931 6.84124 10.3346 7.68983" stroke="white" stroke-linecap="round" stroke-linejoin="round"/>
</svg>
