<svg width="16" height="16" viewBox="0 0 16 16" fill="none" xmlns="http://www.w3.org/2000/svg">
<path d="M11.8019 7.57319L4.26073 2.96472C4.18493 2.9184 4.09817 2.89311 4.00936 2.89144C3.92055 2.88978 3.8329 2.91181 3.75542 2.95526C3.67795 2.99871 3.61345 3.06201 3.56856 3.13866C3.52366 3.21531 3.5 3.30253 3.5 3.39136V12.6083C3.5 12.6971 3.52366 12.7844 3.56856 12.861C3.61345 12.9376 3.67795 13.0009 3.75542 13.0444C3.8329 13.0878 3.92055 13.1099 4.00936 13.1082C4.09817 13.1066 4.18493 13.0813 4.26073 13.0349L11.8019 8.42647C11.8749 8.38181 11.9353 8.31911 11.9772 8.24441C12.0191 8.1697 12.0411 8.08548 12.0411 7.99983C12.0411 7.91417 12.0191 7.82996 11.9772 7.75525C11.9353 7.68054 11.8749 7.61785 11.8019 7.57319V7.57319Z" stroke="white" stroke-linecap="round" stroke-linejoin="round"/>
<path d="M12.5 2.5V13.5" stroke="white" stroke-linecap="round" stroke-linejoin="round"/>
</svg>
